<svg width="36" height="37" viewBox="0 0 36 37" fill="none" xmlns="http://www.w3.org/2000/svg">
<rect y="0.496582" width="36" height="36" fill="#FF0000"/>
<path d="M3.63636 30L7.5 6.72727H20.9659L20.6477 8.63636H9.30682L7.85227 17.3977H18.1364L17.8182 19.3068H7.53409L5.76136 30H3.63636Z" fill="white"/>
<path d="M14.6364 30L18.5 6.72727H26.3523C27.8674 6.72727 29.0871 6.99242 30.0114 7.52273C30.9356 8.05303 31.572 8.77652 31.9205 9.69318C32.2765 10.6098 32.3523 11.6515 32.1477 12.8182C31.9886 13.7879 31.6894 14.6174 31.25 15.3068C30.8106 15.9886 30.2765 16.5455 29.6477 16.9773C29.0265 17.4015 28.3561 17.7083 27.6364 17.8977L27.6023 18.0795C28.3447 18.1326 29.0303 18.3977 29.6591 18.875C30.2879 19.3447 30.7576 20.0038 31.0682 20.8523C31.3864 21.7008 31.4508 22.7159 31.2614 23.8977C31.0644 25.072 30.625 26.1212 29.9432 27.0455C29.2689 27.9621 28.3447 28.6856 27.1705 29.2159C26.0038 29.7386 24.5871 30 22.9205 30H14.6364ZM17.0795 28.0909H23.2386C25.0341 28.0909 26.428 27.6932 27.4205 26.8977C28.4129 26.1023 29.0152 25.1023 29.2273 23.8977C29.3712 23.0114 29.2879 22.2083 28.9773 21.4886C28.6667 20.7614 28.1591 20.1856 27.4545 19.7614C26.75 19.3371 25.875 19.125 24.8295 19.125H18.5795L17.0795 28.0909ZM18.8977 17.2386H24.8182C25.7348 17.2386 26.5682 17.0492 27.3182 16.6705C28.0682 16.2917 28.6894 15.7689 29.1818 15.1023C29.6742 14.4356 29.9886 13.6742 30.125 12.8182C30.3371 11.5833 30.1061 10.5795 29.4318 9.80682C28.7652 9.02651 27.6326 8.63636 26.0341 8.63636H20.3068L18.8977 17.2386Z" fill="white"/>
</svg>
