<svg width="36" height="36" viewBox="0 0 36 36" fill="none" xmlns="http://www.w3.org/2000/svg">
<rect width="36" height="36" fill="#FF0000"/>
<path d="M3.63636 29.5034L7.5 6.23069H20.9659L20.6477 8.13978H9.30682L7.85227 16.9011H18.1364L17.8182 18.8102H7.53409L5.76136 29.5034H3.63636Z" fill="black"/>
<path d="M14.6364 29.5034L18.5 6.23069H26.3523C27.8674 6.23069 29.0871 6.49584 30.0114 7.02614C30.9356 7.55645 31.572 8.27993 31.9205 9.1966C32.2765 10.1133 32.3523 11.1549 32.1477 12.3216C31.9886 13.2913 31.6894 14.1208 31.25 14.8102C30.8106 15.4921 30.2765 16.0489 29.6477 16.4807C29.0265 16.9049 28.3561 17.2118 27.6364 17.4011L27.6023 17.583C28.3447 17.636 29.0303 17.9011 29.6591 18.3784C30.2879 18.8481 30.7576 19.5072 31.0682 20.3557C31.3864 21.2042 31.4508 22.2193 31.2614 23.4011C31.0644 24.5754 30.625 25.6246 29.9432 26.5489C29.2689 27.4655 28.3447 28.189 27.1705 28.7193C26.0038 29.2421 24.5871 29.5034 22.9205 29.5034H14.6364ZM17.0795 27.5943H23.2386C25.0341 27.5943 26.428 27.1966 27.4205 26.4011C28.4129 25.6057 29.0152 24.6057 29.2273 23.4011C29.3712 22.5148 29.2879 21.7118 28.9773 20.9921C28.6667 20.2648 28.1591 19.689 27.4545 19.2648C26.75 18.8405 25.875 18.6284 24.8295 18.6284H18.5795L17.0795 27.5943ZM18.8977 16.7421H24.8182C25.7348 16.7421 26.5682 16.5527 27.3182 16.1739C28.0682 15.7951 28.6894 15.2724 29.1818 14.6057C29.6742 13.939 29.9886 13.1777 30.125 12.3216C30.3371 11.0868 30.1061 10.083 29.4318 9.31024C28.7652 8.52993 27.6326 8.13978 26.0341 8.13978H20.3068L18.8977 16.7421Z" fill="black"/>
</svg>
