<svg width="16" height="16" viewBox="0 0 16 16" fill="none" xmlns="http://www.w3.org/2000/svg">
<rect width="16" height="16" fill="#FF0000"/>
<path d="M1.61619 13.6682L3.33336 3.32478H9.31821L9.1768 4.17326H4.13639L3.48993 8.0672H8.06063L7.91922 8.91569H3.34851L2.56063 13.6682H1.61619Z" fill="white"/>
<path d="M6.5051 13.6682L8.22228 3.32478H11.7122C12.3856 3.32478 12.9277 3.44262 13.3384 3.67831C13.7492 3.914 14.032 4.23555 14.1869 4.64296C14.3452 5.05037 14.3788 5.51333 14.2879 6.03185C14.2172 6.46283 14.0842 6.83151 13.8889 7.13791C13.6937 7.44094 13.4563 7.68841 13.1768 7.88033C12.9007 8.06889 12.6027 8.20525 12.2829 8.28942L12.2677 8.37023C12.5977 8.3938 12.9024 8.51165 13.1819 8.72377C13.4613 8.93252 13.6701 9.22545 13.8081 9.60256C13.9495 9.97966 13.9782 10.4308 13.894 10.9561C13.8065 11.478 13.6112 11.9443 13.3081 12.3551C13.0085 12.7625 12.5977 13.084 12.0758 13.3197C11.5573 13.5521 10.9277 13.6682 10.1869 13.6682H6.5051ZM7.59096 12.8197H10.3283C11.1263 12.8197 11.7458 12.643 12.1869 12.2894C12.628 11.9359 12.8957 11.4914 12.99 10.9561C13.0539 10.5622 13.0169 10.2052 12.8788 9.88538C12.7408 9.56215 12.5152 9.30626 12.2021 9.11771C11.8889 8.92916 11.5001 8.83488 11.0354 8.83488H8.25763L7.59096 12.8197ZM8.39904 7.9965H11.0304C11.4378 7.9965 11.8081 7.91232 12.1415 7.74397C12.4748 7.57562 12.7509 7.3433 12.9698 7.047C13.1886 6.7507 13.3283 6.41232 13.3889 6.03185C13.4832 5.48303 13.3805 5.0369 13.0809 4.69347C12.7846 4.34666 12.2812 4.17326 11.5708 4.17326H9.02531L8.39904 7.9965Z" fill="white"/>
</svg>
